<svg width="36" height="30" viewBox="0 0 36 30" fill="none" xmlns="http://www.w3.org/2000/svg">
<path fill-rule="evenodd" clip-rule="evenodd" d="M17.9056 28.05C17.8476 28.05 17.1849 27.6295 16.4324 27.1177L13.9238 25.4067C13.296 24.976 12.2998 24.2829 11.7082 23.8653C11.0247 23.3806 10.347 22.8874 9.67532 22.3863C9.14752 21.989 8.38482 21.3887 7.98172 21.0537C7.41482 20.568 6.86633 20.0611 6.33742 19.5341C5.86071 19.0603 5.4059 18.5648 4.97442 18.0493C4.68831 17.681 4.41458 17.3035 4.15372 16.9169C3.95072 16.6095 3.61722 16.0382 3.41422 15.6467C3.20977 15.2552 2.91542 14.6157 2.76172 14.2242C2.60101 13.8178 2.46066 13.4035 2.34122 12.983C2.24734 12.6023 2.16705 12.2182 2.10052 11.8317C2.02035 11.2982 1.98592 10.7588 1.99757 10.2193C1.99757 9.48275 2.02657 9.0782 2.10487 8.65915C2.18181 8.27606 2.28156 7.8979 2.40357 7.5267C2.51087 7.21495 2.72257 6.72195 2.87627 6.4305C3.02852 6.1376 3.29967 5.69535 3.47802 5.4445C3.65782 5.1951 3.99422 4.79635 4.22767 4.55855C4.45967 4.32075 4.88017 3.9539 5.15857 3.74365C5.43842 3.5334 5.99087 3.197 6.38527 2.994C6.78257 2.791 7.40607 2.5271 7.76857 2.4053C8.18891 2.26961 8.61755 2.16112 9.05182 2.0805C9.47957 2.008 9.96532 1.979 10.6323 1.979C11.3341 1.979 11.7488 2.008 12.1592 2.08485C12.4695 2.14285 12.9538 2.2632 13.2322 2.35165C13.5135 2.4401 13.9789 2.6286 14.2704 2.7707C14.5604 2.9128 15.0302 3.18685 15.3144 3.3797C15.5972 3.574 16.0713 3.9742 16.3686 4.27145C16.7209 4.6238 17.0457 5.024 17.3111 5.43145C17.5358 5.7751 17.7649 6.1173 17.8244 6.1927C17.9302 6.33045 17.9301 6.33045 18.1665 5.92445C18.3413 5.63377 18.5301 5.35165 18.7321 5.0791C19.2339 4.43263 19.8257 3.86134 20.4895 3.3826C20.7215 3.226 21.1507 2.9766 21.4407 2.8316C21.7307 2.68515 22.228 2.4778 22.547 2.3705C22.9662 2.23914 23.3934 2.13453 23.8259 2.0573C24.4146 1.9558 24.6713 1.9413 25.4557 1.9674C26.004 1.97278 26.5504 2.03252 27.087 2.14575C27.4712 2.22695 28.0295 2.385 28.3296 2.4952C28.6283 2.60685 29.1416 2.8374 29.4737 3.0085C29.8043 3.18105 30.3407 3.52035 30.6626 3.7625C30.9874 4.00755 31.4427 4.4092 31.6747 4.65715C31.9067 4.90365 32.2547 5.3401 32.4504 5.62575C32.6462 5.9114 32.916 6.37975 33.0508 6.6654C33.1871 6.9525 33.3727 7.4165 33.4655 7.69635C33.5583 7.9762 33.6801 8.48515 33.7367 8.82735C33.8034 9.229 33.8411 9.7394 33.8411 10.2715C33.8411 10.8791 33.8062 11.2909 33.709 11.8506C33.6322 12.2862 33.5344 12.7178 33.4162 13.144C33.2978 13.5248 33.1653 13.9011 33.0188 14.2721C32.8883 14.5983 32.6173 15.187 32.4186 15.5829C32.2185 15.9787 31.843 16.6211 31.5834 17.0097C31.3253 17.3997 30.9047 17.9725 30.6481 18.2842C30.3929 18.5945 29.8507 19.1818 29.4432 19.5863C29.0358 19.9909 28.3717 20.5984 27.9686 20.9377C27.564 21.2756 26.7013 21.9542 26.0488 22.4457C25.3963 22.9358 24.3174 23.7188 23.6489 24.1857C22.9819 24.6526 21.4392 25.714 20.2227 26.542C19.0047 27.3714 17.9636 28.05 17.9056 28.05Z" fill="white" stroke="#26686E" stroke-width="2.9"/>
</svg>
