<svg width="33" height="33" viewBox="0 0 33 33" fill="none" xmlns="http://www.w3.org/2000/svg">
<path fill-rule="evenodd" clip-rule="evenodd" d="M12.1067 3.33862H22.6067C27.4384 3.33862 31.3567 7.25688 31.3567 12.0885V22.5886C31.3567 27.4203 27.4384 31.3385 22.6067 31.3385H12.1067C7.27494 31.3385 3.35669 27.4203 3.35669 22.5886V12.0885C3.35669 7.25688 7.27494 3.33862 12.1067 3.33862ZM22.6055 28.7135C25.983 28.7135 28.7305 25.966 28.7305 22.5886V12.0885C28.7305 8.71108 25.983 5.96361 22.6055 5.96361H12.1055C8.72802 5.96361 5.9805 8.71108 5.9805 12.0885V22.5886C5.9805 25.966 8.72802 28.7135 12.1055 28.7135H22.6055Z" fill="white"/>
<path fill-rule="evenodd" clip-rule="evenodd" d="M10.3567 17.3386C10.3567 13.4729 13.491 10.3386 17.3567 10.3386C21.2224 10.3386 24.3567 13.4729 24.3567 17.3386C24.3567 21.2044 21.2224 24.3386 17.3567 24.3386C13.491 24.3386 10.3567 21.2044 10.3567 17.3386ZM12.9819 17.3386C12.9819 19.75 14.9454 21.7135 17.3569 21.7135C19.7684 21.7135 21.7319 19.75 21.7319 17.3386C21.7319 14.9253 19.7684 12.9636 17.3569 12.9636C14.9454 12.9636 12.9819 14.9253 12.9819 17.3386Z" fill="white"/>
<path d="M24.8818 10.7483C25.397 10.7483 25.8146 10.3307 25.8146 9.81556C25.8146 9.30042 25.397 8.88281 24.8818 8.88281C24.3667 8.88281 23.9491 9.30042 23.9491 9.81556C23.9491 10.3307 24.3667 10.7483 24.8818 10.7483Z" fill="white"/>
</svg>
